<?xml version="1.0" encoding="iso-8859-1"?>
<!DOCTYPE svg PUBLIC "-//W3C//DTD SVG 1.1//EN" "http://www.w3.org/Graphics/SVG/1.1/DTD/svg11.dtd">
<svg 
 version="1.1" xmlns="http://www.w3.org/2000/svg" xmlns:xlink="http://www.w3.org/1999/xlink" x="0px" y="0px" width="512px"
	 height="512px" viewBox="0 0 512 512" style="enable-background:new 0 0 512 512;" xml:space="preserve"
><g id="afcae5a789ccd549f9c6e2a2f80c3bfd"><g></g><g fill="#89e089"><path style="display: inline;" d="M419.52,225.34v-51.1C419.52,78.288,346.312,0.5,256,0.5c-73.572,0-135.767,51.627-156.302,122.64
		h43.164C161.373,75.182,205.092,41.38,256,41.38c67.624,0,122.641,59.599,122.641,132.86v51.1H92.479H51.6v107.31v160.965V511.5
		H460.4V332.65V225.34H419.52z M256,439.961c-22.576,0-40.88-18.305-40.88-40.881c0-15.121,8.232-28.293,20.44-35.366V296.88h40.879
		v66.834c12.208,7.073,20.44,20.245,20.44,35.366C296.88,421.656,278.576,439.961,256,439.961z"></path></g></g></svg>